<?xml version="1.0" encoding="UTF-8"?>
<!-- Created with Inkscape (http://www.inkscape.org/) -->
<svg width="120" height="120" version="1.1" viewBox="0 0 120 120" xmlns="http://www.w3.org/2000/svg" xmlns:xlink="http://www.w3.org/1999/xlink">
 <defs>
  <linearGradient id="linearGradient43644">
   <stop stop-color="#007300" offset="0"/>
   <stop stop-color="#007300" stop-opacity=".0072181" offset="1"/>
  </linearGradient>
  <linearGradient id="linearGradient1301" x1="49.693" x2="69.839" y1="25.512" y2="25.512" gradientTransform="translate(4,8)" gradientUnits="userSpaceOnUse" xlink:href="#linearGradient43644"/>
  <linearGradient id="linearGradient1303" x1="49.777" x2="70.07" y1="81.546" y2="81.546" gradientTransform="translate(0,6)" gradientUnits="userSpaceOnUse" xlink:href="#linearGradient43644"/>
  <linearGradient id="linearGradient31669" x1="91.453" x2="72.905" y1="48.722" y2="48.722" gradientUnits="userSpaceOnUse" xlink:href="#linearGradient43644"/>
 </defs>
    <g transform="translate(-3.6704 12.24)" fill="url(#linearGradient31669)" style="shape-inside:url(#rect8261);white-space:pre" aria-label="101 011 110 100">
        <path class="number" d="m74.758 17.636h4.2969v-14.831l-4.6745 0.9375v-2.3958l4.6484-0.9375h2.6302v17.227h4.2969v2.2135h-11.198z"/>
        <path class="number" d="m96.894 2.1413q-2.0313 0-3.0599 2.0052-1.0156 1.9922-1.0156 6.0026 0 3.9974 1.0156 6.0026 1.0286 1.9922 3.0599 1.9922 2.0443 0 3.0599-1.9922 1.0286-2.0052 1.0286-6.0026 0-4.0104-1.0286-6.0026-1.0156-2.0052-3.0599-2.0052zm0-2.0833q3.2682 0 4.987 2.5911 1.7318 2.5781 1.7318 7.5 0 4.9089-1.7318 7.5-1.7188 2.5781-4.987 2.5781-3.2682 0-5-2.5781-1.7188-2.5911-1.7188-7.5 0-4.9219 1.7188-7.5 1.7318-2.5911 5-2.5911z"/>
        <path class="number" d="m108.69 17.636h4.2969v-14.831l-4.6745 0.9375v-2.3958l4.6484-0.9375h2.6302v17.227h4.2969v2.2135h-11.198z"/>
        <path class="number" d="m79.928 27.475q-2.0313 0-3.0599 2.0052-1.0156 1.9922-1.0156 6.0026 0 3.9974 1.0156 6.0026 1.0286 1.9922 3.0599 1.9922 2.0443 0 3.0599-1.9922 1.0286-2.0052 1.0286-6.0026 0-4.0104-1.0286-6.0026-1.0156-2.0052-3.0599-2.0052zm0-2.0833q3.2682 0 4.987 2.5911 1.7318 2.5781 1.7318 7.5 0 4.9089-1.7318 7.5-1.7188 2.5781-4.987 2.5781t-5-2.5781q-1.7188-2.5911-1.7188-7.5 0-4.9219 1.7188-7.5 1.7318-2.5911 5-2.5911z"/>
        <path class="number" d="m91.725 42.969h4.2969v-14.831l-4.6745 0.9375v-2.3958l4.6484-0.9375h2.6302v17.227h4.2969v2.2135h-11.198z"/>
        <path class="number" d="m108.69 42.969h4.2969v-14.831l-4.6745 0.9375v-2.3958l4.6484-0.9375h2.6302v17.227h4.2969v2.2135h-11.198z"/>
        <path class="number" d="m74.758 68.303h4.2969v-14.831l-4.6745 0.9375v-2.3958l4.6484-0.9375h2.6302v17.227h4.2969v2.2135h-11.198z"/>
        <path class="number" d="m91.725 68.303h4.2969v-14.831l-4.6745 0.9375v-2.3958l4.6484-0.9375h2.6302v17.227h4.2969v2.2135h-11.198z"/>
        <path class="number" d="m113.86 52.808q-2.0312 0-3.0599 2.0052-1.0156 1.9922-1.0156 6.0026 0 3.9974 1.0156 6.0026 1.0286 1.9922 3.0599 1.9922 2.0443 0 3.0599-1.9922 1.0286-2.0052 1.0286-6.0026 0-4.0104-1.0286-6.0026-1.0156-2.0052-3.0599-2.0052zm0-2.0833q3.2682 0 4.987 2.5911 1.7318 2.5781 1.7318 7.5 0 4.9089-1.7318 7.5-1.7188 2.5781-4.987 2.5781t-5-2.5781q-1.7188-2.5911-1.7188-7.5 0-4.9219 1.7188-7.5 1.7318-2.5911 5-2.5911z"/>
        <path class="number" d="m74.758 93.636h4.2969v-14.831l-4.6745 0.9375v-2.3958l4.6484-0.9375h2.6302v17.227h4.2969v2.2135h-11.198z"/>
        <path class="number" d="m96.894 78.141q-2.0313 0-3.0599 2.0052-1.0156 1.9922-1.0156 6.0026 0 3.9974 1.0156 6.0026 1.0286 1.9922 3.0599 1.9922 2.0443 0 3.0599-1.9922 1.0286-2.0052 1.0286-6.0026 0-4.0104-1.0286-6.0026-1.0156-2.0052-3.0599-2.0052zm0-2.0833q3.2682 0 4.987 2.5911 1.7318 2.5781 1.7318 7.5 0 4.9089-1.7318 7.5-1.7188 2.5781-4.987 2.5781-3.2682 0-5-2.5781-1.7188-2.5911-1.7188-7.5 0-4.9219 1.7188-7.5 1.7318-2.5911 5-2.5911z"/>
        <path class="number" d="m113.86 78.141q-2.0312 0-3.0599 2.0052-1.0156 1.9922-1.0156 6.0026 0 3.9974 1.0156 6.0026 1.0286 1.9922 3.0599 1.9922 2.0443 0 3.0599-1.9922 1.0286-2.0052 1.0286-6.0026 0-4.0104-1.0286-6.0026-1.0156-2.0052-3.0599-2.0052zm0-2.0833q3.2682 0 4.987 2.5911 1.7318 2.5781 1.7318 7.5 0 4.9089-1.7318 7.5-1.7188 2.5781-4.987 2.5781t-5-2.5781q-1.7188-2.5911-1.7188-7.5 0-4.9219 1.7188-7.5 1.7318-2.5911 5-2.5911z"/>
    </g>
 <path d="m4.0226 8.0649 30.026 50.894h59.933l30.009-50.864" fill="none" stroke="url(#linearGradient1301)" stroke-linecap="round" stroke-linejoin="round" stroke-width="4.048"/>
 <path d="m36.324 67.382h47.484l-23.793 40.329z" fill="none" stroke="url(#linearGradient1303)" stroke-linejoin="round" stroke-width="4.048"/>
</svg>